<?xml version="1.0" standalone="no"?>
<!DOCTYPE svg PUBLIC "-//W3C//DTD SVG 20010904//EN"
 "http://www.w3.org/TR/2001/REC-SVG-20010904/DTD/svg10.dtd">
<svg version="1.0" xmlns="http://www.w3.org/2000/svg"
 width="1910.000000pt" height="1910.000000pt" viewBox="0 0 1910.000000 1910.000000"
 preserveAspectRatio="xMidYMid meet">

<g transform="translate(0.000000,1910.000000) scale(0.100000,-0.100000)"
fill="#000000" stroke="none">
<path d="M9758 17294 c-196 -30 -311 -131 -367 -320 -23 -78 -26 -147 -11
-239 7 -42 7 -93 -1 -171 -10 -97 -10 -117 5 -160 9 -28 18 -91 20 -141 4 -82
2 -90 -13 -86 -16 4 -17 0 -8 -46 13 -60 0 -81 -62 -99 -23 -7 -55 -29 -78
-55 -22 -24 -44 -42 -50 -40 -13 5 -103 -34 -103 -44 0 -15 -44 -36 -90 -45
-59 -11 -161 -11 -230 -1 l-55 8 -36 70 c-91 175 -93 178 -134 199 -56 29
-103 27 -147 -7 -61 -47 -87 -94 -99 -184 -11 -76 -10 -84 10 -122 11 -23 21
-44 21 -47 0 -3 -20 -2 -44 1 -31 5 -53 3 -73 -8 -103 -53 -133 -71 -133 -78
0 -4 -24 -34 -54 -66 -29 -32 -61 -73 -70 -91 -9 -18 -29 -37 -44 -43 -15 -5
-45 -19 -67 -29 -22 -10 -60 -22 -85 -25 -44 -7 -100 -32 -100 -47 0 -4 -21
-10 -47 -14 -27 -3 -57 -11 -68 -17 -34 -17 -103 -92 -110 -120 -15 -57 38
-137 118 -179 40 -21 28 -26 -73 -32 -82 -5 -114 -12 -146 -33 -21 -13 -54 -9
-54 8 0 16 -70 9 -108 -10 -45 -23 -116 -97 -139 -145 -19 -40 -45 -55 -91
-50 -26 3 -40 -3 -71 -31 -21 -19 -49 -35 -62 -35 -32 0 -132 -79 -155 -123
-11 -19 -32 -53 -47 -75 -20 -28 -32 -62 -39 -109 -10 -65 -9 -73 16 -133 47
-110 60 -133 100 -175 21 -22 45 -54 52 -71 14 -32 11 -40 -36 -98 -59 -74
-75 -86 -126 -103 -75 -23 -104 -54 -104 -108 0 -31 8 -53 30 -83 38 -52 76
-64 145 -44 28 7 66 17 85 22 48 10 70 20 70 31 0 5 6 9 14 9 19 0 26 -58 10
-89 -8 -14 -14 -32 -14 -38 0 -7 -15 -30 -33 -50 -18 -21 -45 -55 -60 -75 -15
-21 -44 -45 -65 -55 -20 -9 -57 -30 -81 -45 -25 -15 -55 -28 -68 -28 -13 0
-31 -4 -41 -9 -9 -5 -80 -15 -157 -21 -111 -9 -149 -17 -186 -36 -49 -24 -79
-56 -79 -84 -1 -37 -16 -44 -53 -21 -20 12 -56 22 -83 24 -32 2 -64 13 -91 30
-85 54 -152 43 -208 -34 -29 -38 -33 -104 -11 -147 13 -26 133 -139 181 -172
13 -8 48 -39 80 -68 32 -29 76 -65 99 -79 22 -14 64 -48 93 -74 28 -27 56 -49
62 -49 5 0 13 -9 16 -21 10 -30 60 -74 112 -99 67 -32 221 -137 237 -163 9
-15 14 -52 14 -112 0 -86 12 -188 31 -267 18 -77 128 -218 203 -260 47 -27 55
-49 30 -91 -11 -17 -26 -61 -32 -97 -13 -73 -24 -94 -87 -161 -23 -25 -50 -62
-58 -82 -10 -24 -22 -37 -34 -37 -10 0 -35 -13 -56 -30 -21 -16 -41 -30 -45
-30 -4 0 -19 -12 -34 -26 -51 -51 -28 -132 48 -168 28 -13 61 -15 202 -11 93
3 188 9 212 14 57 11 58 -18 2 -47 -36 -19 -53 -34 -71 -62 -60 -94 -7 -184
131 -221 72 -20 262 -23 322 -5 50 14 52 14 103 -13 29 -15 87 -36 130 -46 72
-17 83 -18 136 -4 67 18 67 17 123 -70 28 -43 28 -46 14 -89 -16 -54 -39 -69
-33 -22 5 38 -8 32 -26 -12 -7 -18 -29 -58 -49 -90 -20 -31 -43 -70 -50 -87
-15 -37 -35 -42 -26 -6 4 14 4 25 1 25 -13 0 -68 -101 -86 -159 -10 -36 -24
-70 -30 -78 -8 -9 -8 -13 0 -13 6 0 11 -9 11 -19 0 -22 -34 -52 -79 -71 -25
-10 -30 -17 -27 -41 3 -23 -3 -34 -28 -52 -48 -36 -57 -40 -50 -23 11 29 -27
17 -63 -19 -19 -19 -39 -35 -45 -35 -5 0 -15 -15 -23 -34 -14 -34 -35 -56 -35
-38 0 5 7 26 15 45 37 89 -8 58 -49 -34 -29 -63 -53 -80 -42 -29 3 18 2 29 -3
25 -14 -8 -75 -124 -96 -180 -26 -70 -38 -84 -46 -54 -5 22 -7 21 -27 -18 -13
-24 -27 -43 -32 -43 -6 0 -10 28 -10 63 0 35 -5 88 -10 119 -9 49 -8 65 15
133 55 171 54 302 -5 521 -16 60 -30 124 -30 143 0 35 -37 171 -46 171 -3 0
-4 -8 -2 -17 2 -12 -4 -19 -18 -21 -35 -5 -70 53 -100 166 -40 150 -166 285
-289 307 -16 3 -24 2 -17 -1 6 -3 10 -9 7 -14 -3 -4 -24 -1 -47 7 -58 20 -136
27 -194 18 -27 -5 -41 -10 -31 -12 24 -6 22 -23 -3 -23 -11 0 -20 5 -20 11 0
23 -198 -14 -272 -52 -23 -12 -77 -56 -119 -100 -70 -71 -145 -123 -176 -124
-6 0 -30 -17 -53 -38 -23 -20 -46 -35 -51 -31 -5 3 -28 -24 -51 -60 -23 -36
-45 -66 -48 -66 -13 0 -87 -116 -123 -191 -38 -82 -67 -169 -67 -203 0 -12
-10 -39 -22 -61 -12 -22 -39 -71 -60 -110 -77 -140 -99 -195 -113 -277 -8 -46
-21 -101 -29 -124 -16 -45 -20 -115 -11 -249 8 -137 13 -168 35 -219 14 -33
20 -69 20 -116 0 -90 15 -135 103 -305 20 -39 29 -61 70 -170 90 -235 124
-275 237 -275 85 0 144 70 141 167 -1 29 1 53 4 53 3 0 18 -12 33 -26 15 -14
40 -32 56 -41 16 -8 59 -40 95 -69 128 -106 121 -97 121 -150 1 -27 7 -60 15
-74 8 -14 14 -37 15 -51 0 -14 16 -52 36 -85 115 -192 308 -255 543 -177 52
18 83 23 110 18 70 -13 267 -78 332 -111 36 -18 89 -40 117 -49 29 -10 55 -22
58 -27 4 -5 -11 -29 -33 -51 -42 -44 -168 -290 -180 -349 -3 -18 -13 -42 -23
-53 -9 -11 -20 -28 -23 -37 -8 -22 -27 -24 -27 -3 0 19 -4 19 -40 0 -17 -9
-41 -20 -55 -25 -24 -9 -25 -8 -14 11 18 34 -103 -35 -147 -84 -64 -70 -87
-136 -95 -270 -4 -75 -11 -123 -20 -134 -11 -12 -14 -68 -16 -241 -2 -217 -1
-229 23 -310 17 -56 24 -95 20 -116 -29 -139 -29 -249 0 -373 11 -49 12 -77 4
-128 -10 -61 0 -180 16 -207 4 -5 10 -39 14 -76 5 -37 12 -87 15 -112 l7 -45
-21 30 -21 30 0 -35 c0 -19 5 -54 10 -78 10 -43 5 -65 -23 -94 -23 -23 -73
-102 -87 -136 -15 -38 -76 -92 -104 -92 -10 0 -34 -11 -52 -25 -36 -28 -49
-31 -60 -14 -3 6 6 22 22 35 l29 24 -30 -6 c-16 -4 -42 -13 -57 -20 -15 -8
-34 -14 -43 -14 -18 0 -21 20 -2 21 21 2 -95 29 -148 35 -29 3 -73 -1 -104 -9
-97 -26 -108 -9 -67 109 13 38 27 96 31 128 4 33 22 89 39 125 l31 66 0 180
c0 175 -1 181 -27 239 -20 42 -28 74 -28 115 0 73 -15 125 -52 183 -26 41 -33
47 -55 42 -19 -5 -25 -2 -30 14 -3 13 -16 22 -39 26 -18 4 -33 12 -31 19 1 8
-16 13 -52 15 l-53 3 23 25 c28 30 13 31 -46 2 -48 -23 -67 -19 -44 9 8 9 10
15 4 12 -5 -3 -36 -18 -67 -33 -73 -36 -139 -107 -165 -177 -12 -32 -23 -93
-26 -149 -3 -52 -13 -126 -20 -165 -35 -171 -30 -340 13 -426 22 -42 60 -148
60 -166 0 -7 -7 -10 -16 -6 -15 5 -15 3 0 -25 22 -42 22 -122 0 -122 -9 0 -29
-9 -45 -21 -17 -12 -29 -16 -29 -9 0 8 -8 10 -22 5 -32 -10 -132 -6 -136 6 -2
5 -17 9 -33 9 -27 0 -29 3 -29 38 0 22 7 61 15 88 8 27 15 84 15 127 0 71 4
84 40 157 23 45 43 100 47 128 5 44 3 50 -16 55 -17 4 -21 14 -23 54 -4 100
12 209 43 293 34 91 53 257 50 427 -2 124 0 159 13 185 15 28 15 33 1 40 -21
12 -20 18 19 83 23 38 43 93 61 167 25 106 26 120 21 292 -4 100 -7 249 -9
331 -2 141 -4 156 -35 244 -41 117 -97 220 -127 231 -12 5 -33 22 -46 39 -29
36 -79 53 -79 25 0 -16 -2 -15 -23 4 -24 22 -67 30 -67 12 0 -5 -6 -10 -14
-10 -8 0 -16 -5 -18 -11 -5 -14 -63 14 -72 33 -3 7 -2 0 1 -16 4 -22 3 -27 -7
-21 -9 5 -10 2 -5 -14 4 -12 2 -21 -4 -21 -6 0 -11 5 -11 10 0 6 -4 10 -10 10
-5 0 -7 -7 -4 -15 4 -8 1 -15 -5 -15 -14 0 -15 27 -1 35 13 8 13 35 1 35 -5 0
-19 -16 -32 -36 -14 -23 -24 -32 -29 -24 -8 12 -33 -21 -50 -65 -5 -14 -14
-25 -20 -25 -5 0 -10 -9 -10 -20 0 -11 -20 -49 -44 -84 -58 -85 -73 -134 -91
-304 -8 -78 -20 -152 -26 -163 -11 -21 -15 -150 -10 -329 2 -47 -2 -121 -8
-164 -24 -170 -40 -360 -36 -414 5 -61 16 -388 15 -462 0 -25 -7 -108 -15
-185 -16 -148 -13 -195 20 -285 22 -60 46 -223 51 -337 l3 -92 -42 -23 c-138
-76 -106 -255 53 -298 43 -12 62 -46 75 -135 4 -27 13 -61 20 -75 7 -14 18
-51 25 -83 20 -100 97 -158 190 -142 63 11 94 55 120 177 19 83 19 83 81 55
30 -13 65 -28 79 -32 14 -4 39 -15 55 -25 53 -32 166 -70 254 -85 54 -10 113
-28 158 -51 44 -22 105 -41 155 -50 46 -8 101 -19 123 -25 22 -5 76 -16 120
-24 44 -9 118 -25 165 -37 69 -18 122 -23 282 -26 117 -2 226 1 269 7 39 7 74
9 76 7 3 -3 6 -33 8 -68 1 -35 6 -76 10 -93 9 -37 77 -109 119 -127 17 -7 59
-29 92 -50 34 -20 77 -44 95 -53 19 -8 61 -31 94 -51 58 -33 187 -98 270 -134
22 -9 88 -40 146 -69 59 -28 116 -51 127 -51 12 0 23 -4 27 -9 3 -5 20 -13 38
-16 17 -4 46 -15 62 -25 17 -10 66 -29 110 -43 120 -38 191 -62 285 -95 47
-16 112 -34 145 -40 33 -5 92 -21 130 -35 39 -14 117 -33 175 -42 58 -9 128
-22 155 -30 94 -25 150 -35 250 -46 55 -6 134 -15 175 -20 444 -50 994 -46
1395 11 39 5 86 11 105 14 104 12 257 42 438 86 23 5 59 14 80 19 20 5 66 14
102 21 65 12 130 31 185 55 17 7 48 18 70 23 22 6 54 15 70 20 17 6 64 21 105
33 41 12 81 27 89 33 16 13 69 32 137 52 49 13 97 32 191 75 24 10 47 19 53
19 5 0 10 5 10 10 0 6 5 10 12 10 10 0 178 81 258 125 14 7 57 29 95 47 97 48
247 128 265 142 8 7 38 25 65 41 79 44 148 91 170 115 21 23 22 34 14 213 -5
100 0 106 66 107 86 1 205 41 258 86 33 27 49 33 110 39 40 3 110 17 157 30
47 13 119 26 161 29 42 3 89 11 105 17 16 6 79 15 140 19 86 6 126 14 175 35
120 50 134 54 209 55 89 1 197 33 280 84 38 23 80 39 137 49 45 9 110 28 145
42 177 75 234 94 287 95 102 0 206 37 292 102 24 19 76 47 114 62 39 15 115
51 170 79 55 29 124 63 152 76 66 29 136 104 170 178 38 83 38 188 0 261 -20
37 -33 52 -48 52 -12 0 -37 16 -56 35 -19 19 -37 35 -40 35 -3 0 -14 -11 -25
-25 -22 -29 -40 -32 -59 -9 -10 12 -10 20 -1 35 12 19 12 19 -17 5 -16 -9 -37
-13 -45 -10 -20 8 -20 9 0 39 20 30 11 31 -39 5 -32 -17 -37 -18 -37 -4 0 11
-6 13 -19 9 -34 -11 -64 -16 -137 -25 -40 -5 -88 -16 -108 -24 -31 -13 -37
-13 -44 0 -7 13 -18 13 -88 -1 -151 -31 -199 -46 -253 -82 -30 -19 -59 -36
-65 -37 -6 -1 -15 -4 -21 -8 -5 -3 -30 -9 -55 -13 -28 -5 -54 -17 -70 -34 -61
-62 -131 -121 -138 -117 -4 2 -31 7 -59 10 -51 5 -53 4 -53 -19 0 -34 -57 -50
-168 -47 -53 2 -47 22 6 23 l37 1 -40 13 c-86 29 -256 12 -323 -32 -32 -20
-134 -55 -127 -43 14 23 -56 7 -110 -25 -63 -38 -81 -39 -46 -1 14 15 19 26
12 30 -12 8 -62 -16 -80 -38 -8 -9 -21 -16 -29 -16 -30 0 -102 -33 -102 -46 0
-19 -54 -40 -125 -47 -33 -4 -84 -16 -113 -27 -47 -18 -62 -19 -110 -10 -81
15 -137 12 -227 -9 l-80 -20 -16 21 c-11 14 -19 48 -22 92 -4 70 -4 72 44 153
26 46 60 116 74 155 14 40 46 102 70 138 44 65 97 179 110 240 4 17 25 63 47
101 41 71 90 208 103 289 9 58 18 74 73 135 55 61 104 161 122 246 9 46 26 82
57 125 59 84 82 141 98 238 8 46 23 100 36 122 29 52 78 184 95 259 8 33 15
96 15 140 0 61 6 92 23 130 13 27 29 68 36 89 15 48 16 160 1 200 -10 24 -7
37 19 90 23 48 31 80 36 151 4 65 15 111 36 165 40 100 36 157 -13 205 -34 33
-109 57 -109 35 0 -5 5 -10 11 -10 5 0 8 -4 5 -8 -3 -5 -29 -5 -59 -1 -85 11
-151 -6 -191 -50 -23 -25 -36 -27 -36 -5 0 16 -19 15 -66 -3 -15 -6 -14 -1 6
26 l23 33 -24 -13 c-26 -15 -28 -15 -141 -23 -42 -3 -91 -12 -109 -21 -29 -15
-31 -15 -26 -1 8 21 -21 21 -47 1 -15 -11 -22 -12 -27 -3 -6 9 -19 6 -51 -10
-26 -14 -68 -24 -108 -27 -36 -2 -80 -9 -98 -14 -19 -6 -61 -8 -95 -5 -43 4
-76 1 -107 -10 -24 -8 -46 -14 -47 -12 -2 2 12 14 32 27 35 24 44 39 25 39 -6
0 -33 -12 -61 -26 -53 -26 -71 -26 -49 1 18 21 -1 19 -54 -6 -57 -27 -159 -42
-152 -22 7 17 -21 17 -52 -1 -33 -18 -96 -7 -100 18 -2 11 -17 40 -32 65 -15
25 -31 62 -35 81 -22 112 -89 273 -137 327 -9 10 -19 28 -22 41 -4 12 -11 22
-16 22 -4 0 -11 12 -15 28 -3 15 -18 44 -32 64 -23 34 -24 58 -3 58 5 0 39 13
75 30 35 16 86 35 112 41 70 18 126 43 193 89 32 22 62 40 66 40 4 0 41 16 83
36 42 20 94 43 116 50 22 8 63 30 91 49 27 19 70 41 95 48 24 8 89 43 144 80
55 36 122 73 148 82 27 9 82 38 124 66 41 27 94 54 117 60 34 9 80 33 266 139
8 4 30 14 47 20 67 25 103 76 103 145 0 93 -66 160 -150 151 -78 -7 -152 -27
-204 -53 -70 -36 -171 -63 -232 -63 -31 0 -56 -5 -63 -14 -6 -7 -38 -16 -71
-19 -33 -3 -81 -15 -107 -28 -42 -20 -62 -23 -148 -22 -71 2 -113 -3 -145 -14
-42 -16 -99 -48 -110 -64 -6 -8 -26 -12 -54 -10 -17 1 -17 2 -2 26 19 29 16
31 -25 9 -17 -8 -37 -13 -45 -10 -9 3 -54 -8 -102 -24 -48 -16 -104 -30 -125
-30 -30 0 -40 -4 -44 -20 -4 -14 -14 -20 -34 -20 -44 0 -160 -27 -211 -49 -28
-12 -74 -21 -115 -22 -47 -2 -88 -11 -133 -29 -106 -44 -118 -52 -123 -71 -6
-23 -35 -25 -44 -3 -7 18 -74 83 -86 84 -4 0 -23 18 -43 40 -20 21 -53 47 -74
56 -21 9 -43 27 -48 40 -6 12 -38 36 -74 53 -35 17 -79 45 -98 61 -19 16 -43
30 -54 32 -32 5 -27 21 15 53 23 17 56 44 74 60 19 17 42 37 52 46 10 9 43 47
73 84 30 37 84 95 119 129 35 33 71 77 82 97 10 20 31 50 46 66 61 64 134 163
169 231 10 17 20 32 23 32 3 0 26 -18 51 -41 86 -78 168 -105 281 -91 97 12
150 45 186 116 22 43 25 59 20 111 -3 33 -9 69 -12 81 -5 17 0 22 33 32 43 13
70 34 96 75 15 22 26 27 60 27 73 0 216 29 244 48 15 11 36 22 47 26 25 8 50
30 93 79 29 35 32 43 32 107 0 76 -17 118 -60 143 -14 9 -44 33 -67 55 -23 22
-54 43 -69 46 -16 4 -48 24 -73 45 -25 21 -72 55 -103 77 -32 21 -58 44 -58
50 0 6 34 27 76 48 76 37 184 130 184 158 0 7 16 38 36 68 20 30 41 67 46 83
6 15 29 40 52 56 23 16 61 50 86 75 25 26 84 75 132 109 53 37 88 69 88 80 0
9 5 17 10 17 6 0 10 5 10 10 0 6 -7 10 -15 10 -28 0 -15 18 20 30 19 6 40 20
45 31 6 10 15 19 21 19 5 0 26 11 47 24 20 14 73 35 117 47 44 12 102 32 128
46 44 22 121 90 157 139 8 11 31 30 50 43 19 13 82 71 140 130 58 59 120 118
138 132 40 30 136 146 169 205 29 51 56 192 47 243 -8 49 -47 114 -81 137 -19
12 -48 19 -88 20 -33 1 -88 5 -122 9 -34 4 -70 4 -80 0 -10 -5 -29 -10 -43
-11 -114 -12 -175 -40 -240 -111 -25 -27 -57 -71 -71 -98 -14 -27 -30 -50 -36
-52 -19 -7 -25 64 -8 97 23 45 2 36 -49 -21 -44 -49 -74 -61 -48 -19 15 25 7
25 -19 1 -11 -10 -41 -24 -66 -31 -55 -13 -116 -43 -163 -80 -19 -15 -40 -25
-46 -23 -6 2 -19 -5 -28 -16 -13 -15 -26 -19 -47 -14 -16 3 -58 -3 -94 -13
-62 -16 -68 -16 -95 -1 -15 9 -37 17 -48 17 -33 0 -36 20 -4 31 63 22 98 48
135 99 30 44 37 62 37 102 0 42 -5 54 -34 84 -24 25 -36 48 -40 79 -7 41 -4
48 33 95 56 70 84 150 71 198 -5 20 -18 49 -27 63 -72 106 -93 146 -122 235
-33 104 -66 150 -150 212 -18 14 -31 33 -31 45 0 41 -41 107 -79 127 -49 26
-67 55 -75 123 -7 68 -26 100 -66 117 -15 6 -31 22 -34 34 -5 21 -61 56 -90
56 -22 0 -109 108 -102 126 10 26 -13 92 -42 125 -32 36 -125 103 -169 124
l-32 15 24 42 c33 58 32 99 -5 153 -48 70 -77 88 -131 82 -38 -5 -50 -2 -64
13 -23 25 -67 39 -143 45 -52 4 -71 11 -109 40 -25 19 -51 35 -58 35 -7 0 -24
9 -38 20 -14 11 -40 23 -59 26 -43 9 -70 23 -63 34 7 11 -80 100 -99 100 -8 0
-30 16 -49 35 -19 19 -41 35 -49 35 -8 0 -29 16 -48 35 -19 19 -52 44 -74 56
-22 12 -47 28 -56 38 -57 62 -201 151 -245 151 -11 0 -32 8 -45 17 -40 29
-133 66 -160 65 -14 -1 -60 -4 -102 -6 -74 -5 -78 -4 -82 17 -13 62 -14 89 -4
172 7 70 6 108 -6 180 -8 49 -15 133 -14 185 1 109 -16 182 -63 262 -45 77
-101 135 -164 174 -48 29 -118 56 -135 53 -3 -1 -44 -7 -92 -15z m1632 -3941
c0 -10 6 -13 16 -9 9 3 25 -1 37 -9 12 -8 35 -15 51 -15 16 0 26 -3 22 -7 -4
-4 -24 -6 -44 -5 -34 2 -35 1 -12 -9 14 -6 37 -8 53 -5 36 7 34 1 -5 -19 -21
-10 -34 -12 -36 -5 -5 13 -32 13 -32 0 0 -15 76 -50 107 -49 24 2 25 2 5 6
-25 5 -20 23 6 23 18 0 42 41 42 71 0 20 18 35 28 24 3 -3 0 -10 -7 -14 -9 -6
-12 -20 -9 -41 3 -21 0 -34 -9 -37 -7 -3 -13 -12 -13 -20 0 -8 4 -12 9 -9 11
7 25 -85 14 -93 -18 -13 -60 -79 -92 -143 l-34 -68 16 -57 c9 -32 26 -66 38
-76 21 -17 21 -18 4 -37 -10 -11 -22 -20 -27 -20 -21 0 -77 -53 -87 -82 -13
-38 -14 -105 -2 -113 5 -3 12 -19 16 -35 5 -23 27 -46 88 -92 86 -65 112 -91
96 -96 -5 -2 -7 -8 -4 -12 3 -5 1 -11 -5 -15 -5 -3 -10 0 -10 7 0 10 -3 9 -10
-2 -6 -9 -5 -17 3 -22 9 -6 7 -12 -5 -22 -10 -7 -18 -17 -18 -21 0 -4 -7 -13
-14 -19 -8 -6 -18 -24 -21 -41 -5 -23 -4 -26 4 -15 9 12 11 10 11 -13 0 -16
-4 -26 -10 -22 -10 6 -14 -6 -10 -39 1 -12 -2 -16 -12 -11 -10 6 -11 5 0 -6 6
-7 12 -21 12 -31 0 -10 6 -29 14 -41 7 -12 16 -50 19 -85 4 -53 11 -69 41
-107 38 -46 75 -61 125 -50 16 3 35 13 42 21 6 8 14 14 18 14 10 0 11 -183 0
-196 -13 -16 -31 -178 -23 -210 4 -16 2 -29 -5 -33 -7 -5 -16 -34 -21 -67 -10
-64 -13 -77 -60 -204 -17 -47 -36 -101 -42 -120 -5 -19 -14 -39 -18 -45 -14
-17 -60 -141 -60 -161 -1 -10 -25 -44 -55 -74 -40 -40 -57 -65 -61 -92 -5 -27
-17 -45 -46 -68 -23 -19 -52 -57 -71 -96 -17 -35 -39 -67 -49 -70 -10 -3 -27
-20 -39 -37 -12 -18 -41 -50 -63 -73 -23 -22 -50 -56 -61 -75 -11 -19 -34 -41
-52 -49 -17 -8 -42 -32 -55 -52 -13 -20 -34 -43 -48 -50 -14 -7 -29 -19 -33
-25 -4 -7 -18 -13 -31 -13 -13 0 -38 -11 -57 -24 -19 -13 -65 -40 -104 -61
-38 -20 -80 -47 -92 -61 -14 -15 -33 -24 -53 -24 -17 0 -68 -17 -113 -39 -45
-21 -92 -41 -103 -45 -12 -3 -29 -15 -39 -26 -10 -11 -29 -20 -41 -20 -33 0
-162 -44 -225 -76 -42 -22 -69 -28 -120 -29 -44 -1 -76 -7 -93 -18 -14 -9 -40
-17 -58 -17 -18 -1 -44 -7 -58 -15 -33 -19 -108 -19 -153 0 -20 8 -48 15 -61
15 -14 0 -42 9 -63 20 -21 10 -60 20 -88 21 -35 1 -73 13 -129 40 -43 22 -85
39 -93 39 -8 0 -27 7 -42 15 -16 8 -45 15 -65 17 -20 1 -42 8 -47 15 -12 14
-212 113 -228 113 -6 0 -8 7 -5 15 5 11 -1 15 -20 15 -15 0 -43 7 -62 15 -28
11 -34 19 -29 34 7 23 -21 37 -29 15 -3 -9 -1 -12 4 -9 6 3 10 1 10 -4 0 -13
-10 -14 -28 -3 -7 5 -10 16 -7 24 4 9 0 18 -10 22 -10 3 -14 2 -9 -5 4 -7 -6
-9 -27 -7 -18 2 -35 10 -37 18 -4 12 -3 13 10 2 13 -10 17 -10 22 4 8 21 0 30
-39 38 -24 5 -27 4 -15 -5 13 -9 12 -10 -3 -5 -10 3 -26 6 -35 6 -15 1 -15 2
1 11 23 14 22 26 -5 39 -22 11 -22 10 -4 -4 19 -16 19 -16 -2 -16 -14 0 -22
-6 -22 -17 0 -14 -3 -13 -23 5 -13 12 -29 22 -35 22 -14 0 -15 19 -3 38 6 11
11 10 25 -3 21 -21 34 -12 16 10 -11 14 -72 45 -87 45 -2 0 3 -7 11 -16 9 -8
16 -23 16 -32 0 -23 -49 37 -50 61 0 9 -4 17 -10 17 -5 0 -7 -7 -4 -15 4 -8 2
-15 -4 -15 -14 0 -33 26 -25 34 4 4 0 4 -8 1 -19 -7 -42 37 -32 62 5 12 2 15
-10 10 -9 -3 -17 -2 -17 3 0 14 18 21 25 10 3 -5 13 -10 22 -10 13 0 13 3 3
15 -7 8 -18 15 -25 15 -8 0 -23 12 -35 27 -21 27 -22 28 -36 8 -13 -17 -16
-18 -24 -5 -7 11 -4 17 10 22 29 11 25 31 -5 26 -27 -6 -32 1 -13 20 9 9 9 12
-1 12 -7 0 -11 6 -8 14 3 8 -3 22 -14 32 -19 17 -19 17 -14 -22 3 -28 2 -34
-4 -19 -5 11 -10 38 -11 60 0 33 -2 37 -11 22 -11 -18 -9 -33 6 -69 13 -32
-13 -19 -29 14 -18 36 -19 41 -7 34 5 -3 11 5 13 18 4 17 1 23 -9 19 -7 -3
-13 -9 -13 -15 0 -5 -5 -6 -10 -3 -6 4 -8 10 -5 15 3 4 1 19 -4 32 -8 18 -10
19 -10 5 -1 -10 -6 -15 -12 -12 -6 4 -8 14 -5 22 7 17 -10 43 -26 43 -6 0 -5
-7 2 -15 7 -8 8 -15 2 -15 -5 0 -15 7 -22 15 -9 10 -9 15 -1 15 6 0 11 9 11
20 0 21 -20 29 -20 8 0 -7 -5 -5 -11 5 -24 42 1 39 45 -4 54 -54 62 -45 11 12
-19 22 -35 36 -35 32 0 -3 -9 2 -20 12 -11 10 -20 24 -20 32 0 16 -17 18 -22
2 -2 -6 -20 7 -41 30 -40 44 -51 77 -16 45 l22 -19 -7 40 c-5 22 -11 44 -14
50 -4 5 -14 30 -22 54 -17 50 -40 66 -40 29 0 -21 -2 -20 -20 10 -21 34 -21
62 1 130 6 18 8 36 5 39 -10 10 -19 -5 -26 -44 l-6 -38 -21 45 c-12 25 -25 59
-29 75 -4 17 -13 39 -20 50 -16 23 -19 49 -4 40 6 -3 10 4 10 17 0 40 -20 97
-38 107 -12 7 -13 10 -3 11 10 0 12 8 6 33 -4 17 -7 42 -6 55 0 12 -4 22 -10
22 -7 0 -10 21 -7 58 2 44 -1 61 -14 75 -19 18 -25 53 -8 42 6 -3 10 4 10 17
0 19 -2 20 -11 8 -8 -11 -9 -1 -4 35 8 61 11 66 32 58 10 -4 14 -2 10 4 -4 6
11 29 33 51 24 27 41 37 44 29 3 -7 3 -2 0 10 -8 33 5 48 22 26 12 -16 13 -13
8 28 -4 30 -2 49 5 53 6 4 11 16 11 27 0 12 5 19 12 17 17 -6 40 41 34 68 -4
14 4 36 20 60 34 49 65 136 71 196 6 60 -24 245 -45 278 -8 14 -27 36 -42 50
-33 31 -55 66 -64 104 -4 16 -15 40 -25 52 -11 14 -19 41 -19 69 -1 25 -4 50
-7 54 -9 16 18 76 52 111 26 27 36 32 42 21 7 -11 10 -9 15 7 4 11 6 24 5 28
-3 18 14 54 22 48 5 -3 9 2 9 10 0 9 7 16 15 16 8 0 15 9 15 20 0 14 11 22 43
30 23 6 54 15 69 20 16 5 30 4 34 -1 3 -5 -2 -9 -11 -9 -9 0 -14 -4 -10 -10 3
-5 12 -7 20 -4 9 4 30 -7 50 -24 29 -26 88 -52 118 -52 5 0 34 12 65 26 58 27
112 69 112 88 0 6 10 23 23 38 22 27 23 27 62 12 66 -25 107 -34 165 -34 30 0
70 -4 89 -10 44 -12 93 -14 164 -5 49 7 57 6 52 -8 -5 -12 4 -16 44 -18 38 -3
50 -1 46 9 -10 27 12 10 30 -23 10 -20 32 -42 49 -50 17 -8 44 -25 59 -38 l28
-22 -153 -2 c-232 -3 -245 -4 -435 -48 -12 -3 -35 -17 -52 -31 -21 -17 -37
-23 -51 -19 -19 6 -86 -26 -101 -48 -4 -5 -38 -20 -75 -33 -67 -23 -94 -44
-94 -71 0 -19 39 -36 67 -28 13 3 93 12 176 20 84 8 184 20 222 26 39 6 196
12 350 14 287 3 310 6 366 46 76 54 -4 159 -121 159 -59 0 -57 17 3 23 29 3
78 17 108 32 l56 27 49 -37 c90 -70 132 -83 306 -95 147 -10 159 -9 210 10 54
20 82 44 126 107 18 26 19 31 5 26 -11 -4 -14 -3 -9 5 4 6 1 20 -6 31 -7 11
-9 23 -6 26 8 8 48 -26 48 -41 0 -6 9 -14 20 -17 11 -3 20 -4 20 -2 0 2 3 12
6 22 5 14 4 15 -4 4 -8 -12 -14 -8 -31 19 -11 19 -18 37 -15 42 7 11 -14 10
-37 -2 -17 -10 -19 -7 -19 25 0 22 5 35 13 35 19 0 70 -56 63 -69 -4 -5 9 -17
29 -27 40 -18 54 -34 31 -34 -22 0 -28 -16 -11 -30 13 -11 14 -10 10 2 -7 18
24 33 38 19 12 -12 0 -64 -13 -56 -6 3 -10 -1 -10 -10 0 -11 5 -15 15 -12 8 4
17 2 20 -3 3 -4 -1 -10 -7 -13 -20 -7 -7 -14 40 -22 39 -6 42 -5 43 17 0 12 3
18 5 11 3 -7 12 -9 20 -6 12 4 10 9 -7 24 -18 16 -19 19 -6 19 10 0 17 4 17
10 0 5 -12 7 -27 4 -16 -3 -39 -1 -53 5 -21 8 -15 10 36 10 43 1 65 -4 74 -14
7 -8 16 -13 20 -10 4 3 13 -2 19 -9 8 -9 8 -17 2 -20 -5 -3 -11 -1 -13 5 -3 8
-8 8 -18 -2 -32 -30 -99 -71 -108 -65 -6 3 -10 -4 -10 -17 0 -12 -4 -34 -7
-49 -11 -42 2 -76 35 -93 34 -18 148 -20 200 -4 40 12 122 24 265 39 89 8 177
22 340 51 28 4 86 14 129 21 54 9 83 19 90 31 18 28 -5 51 -65 65 -30 7 -73
18 -96 24 l-43 12 58 53 c31 29 59 53 62 53 3 0 23 25 45 55 34 48 44 55 65
50 19 -4 21 -3 10 5 -12 7 -12 10 -1 10 7 0 11 6 8 14 -4 10 -1 13 9 9 7 -3
14 -12 14 -20z m1860 -93 c0 -5 -5 -10 -11 -10 -5 0 -7 5 -4 10 3 6 8 10 11
10 2 0 4 -4 4 -10z m-2387 -70 c4 -14 0 -20 -11 -21 -10 -1 -28 -3 -41 -4 -22
-2 -22 -2 5 21 36 29 40 29 47 4z m52 -40 c3 -5 -3 -10 -14 -10 -12 0 -21 5
-21 10 0 6 6 10 14 10 8 0 18 -4 21 -10z m-632 -27 c3 -5 -6 -9 -19 -9 -13 -1
-24 2 -24 7 0 11 37 12 43 2z m1967 -169 c28 -26 50 -52 50 -58 0 -6 14 -29
30 -50 17 -22 30 -45 30 -51 0 -6 14 -30 30 -52 17 -23 44 -74 60 -114 17 -40
35 -78 40 -84 11 -14 37 -118 50 -200 4 -27 13 -65 20 -83 8 -21 10 -53 6 -90
-4 -31 -9 -86 -13 -121 -4 -52 -13 -75 -41 -115 -45 -66 -73 -96 -87 -96 -7 0
-23 -11 -36 -24 -31 -30 -72 -44 -63 -22 8 21 -12 21 -24 0 -6 -11 -14 -14
-23 -8 -21 13 -92 15 -99 4 -4 -6 -14 -8 -23 -4 -12 4 -14 10 -7 24 12 23 60
33 67 14 7 -19 23 -18 23 1 0 24 64 23 91 -1 8 -8 22 -14 30 -13 8 0 6 4 -6 9
-11 5 -15 9 -9 9 20 2 11 27 -10 29 -11 0 -22 6 -24 12 -2 5 -16 10 -30 9
l-27 -1 25 -8 c23 -7 24 -8 3 -9 -12 -1 -28 8 -36 20 -9 12 -16 16 -19 9 -2
-7 -26 -16 -53 -21 -27 -5 -51 -13 -54 -18 -10 -14 -45 -21 -61 -11 -13 8 -15
44 -12 247 1 131 5 246 8 255 6 19 34 13 34 -8 0 -7 9 -19 20 -27 11 -8 17
-17 13 -20 -3 -4 4 -7 16 -7 13 0 25 -9 30 -23 11 -30 64 -75 97 -83 15 -4 34
0 50 11 25 16 26 20 19 79 -3 33 -18 86 -32 118 -27 61 -63 96 -156 148 -55
31 -58 34 -51 64 3 17 12 38 19 46 23 28 28 55 35 196 4 77 10 146 14 152 13
22 36 12 86 -34z m-5144 -174 c13 -36 28 -107 33 -160 l10 -95 -27 -24 c-15
-12 -36 -31 -47 -40 -11 -10 -34 -33 -51 -52 -17 -19 -43 -45 -58 -58 -25 -22
-30 -40 -26 -89 1 -13 -4 -30 -11 -38 -17 -21 -17 -127 0 -148 19 -22 73 -20
105 5 26 20 96 130 96 151 0 14 30 48 42 48 4 0 8 -6 8 -12 0 -7 23 -44 52
-81 65 -88 80 -145 62 -235 -14 -70 -34 -98 -54 -79 -10 10 -12 7 -7 -11 5
-20 2 -23 -12 -19 -12 3 -18 -1 -17 -12 1 -11 -8 -16 -36 -16 -20 0 -34 -4
-31 -8 3 -5 -4 -15 -16 -23 -12 -8 -21 -24 -21 -34 0 -10 -5 -22 -10 -25 -16
-10 -1 46 18 68 8 9 12 20 8 24 -4 4 -11 1 -15 -6 -6 -9 -11 -10 -15 -2 -4 6
-14 11 -23 11 -12 0 -13 -3 -4 -14 7 -8 11 -27 9 -43 -3 -27 -5 -28 -62 -28
-36 0 -61 5 -63 11 -2 7 -12 10 -22 7 -10 -3 -22 0 -25 6 -4 6 0 11 8 11 9 0
16 7 16 15 0 10 -9 13 -35 10 -33 -5 -35 -3 -30 18 4 14 1 28 -8 35 -12 10
-13 8 -9 -14 3 -19 1 -25 -7 -20 -6 4 -11 13 -11 20 0 8 -13 19 -29 26 -40 16
-57 37 -75 90 -25 75 -29 167 -12 248 9 40 16 85 16 100 0 15 11 44 25 64 14
20 25 50 25 66 0 17 9 49 20 73 11 24 20 54 20 65 0 23 50 102 106 168 34 40
142 117 158 113 5 -2 19 -32 32 -67z m652 -735 c-3 -3 -9 2 -12 12 -6 14 -5
15 5 6 7 -7 10 -15 7 -18z m-21 -27 c-3 -8 -6 -5 -6 6 -1 11 2 17 5 13 3 -3 4
-12 1 -19z m4393 -213 c0 -8 -4 -15 -9 -15 -5 0 -11 7 -15 15 -3 9 0 15 9 15
8 0 15 -7 15 -15z m-4530 -440 c0 -8 -4 -15 -10 -15 -5 0 -10 7 -10 15 0 8 5
15 10 15 6 0 10 -7 10 -15z m167 -507 c-3 -8 -6 -5 -6 6 -1 11 2 17 5 13 3 -3
4 -12 1 -19z m26 -58 c3 -11 2 -20 -3 -20 -4 0 -10 9 -13 20 -3 11 -2 20 3 20
4 0 10 -9 13 -20z m397 -552 c0 -3 -9 -4 -20 -1 -23 6 -22 5 -14 27 6 15 8 15
20 -1 7 -10 14 -21 14 -25z m370 -288 c0 -5 -2 -10 -4 -10 -3 0 -8 5 -11 10
-3 6 -1 10 4 10 6 0 11 -4 11 -10z m-2537 -41 c-1 -13 3 -39 8 -56 6 -18 12
-46 14 -63 2 -17 7 -35 11 -42 15 -24 34 -152 23 -158 -6 -5 -8 -34 -3 -83 5
-55 3 -81 -6 -92 -17 -20 -30 -10 -30 23 0 39 -11 73 -21 66 -5 -3 -9 -44 -9
-91 l0 -85 -20 23 -19 24 -1 -47 c0 -69 -27 -220 -55 -310 -13 -42 -29 -118
-34 -170 -5 -51 -19 -120 -31 -153 -11 -33 -25 -80 -31 -105 -6 -24 -15 -48
-22 -52 -19 -12 -77 -9 -77 3 0 8 -14 10 -40 6 -42 -5 -90 10 -90 30 0 6 -15
14 -32 18 -18 4 -52 15 -75 26 -41 18 -43 21 -39 57 16 143 29 215 60 314 19
62 54 185 76 273 38 146 46 167 97 243 30 46 63 106 71 133 11 35 33 68 72
108 30 31 83 87 118 125 63 68 88 79 85 35z m2380 -165 c62 -31 117 -69 117
-80 0 -11 -58 -44 -78 -44 -5 0 -15 -7 -22 -15 -7 -8 -38 -29 -69 -46 -31 -18
-65 -40 -76 -49 -11 -10 -32 -20 -47 -24 -25 -6 -56 -41 -105 -118 -10 -16
-26 -28 -35 -28 -22 0 -68 -21 -68 -31 0 -11 -157 -169 -168 -169 -6 0 -23
-16 -39 -36 -15 -19 -49 -58 -75 -87 -27 -28 -48 -55 -48 -59 0 -4 -14 -23
-30 -42 -17 -18 -37 -51 -46 -72 -9 -22 -29 -54 -45 -72 -16 -18 -29 -41 -29
-52 0 -10 -16 -33 -35 -51 -19 -19 -38 -47 -41 -65 -3 -17 -29 -58 -58 -91
-29 -33 -58 -75 -65 -94 -20 -54 -29 -71 -56 -114 -14 -22 -32 -56 -40 -75
-40 -94 -58 -103 -123 -66 -31 17 -34 17 -51 2 -16 -15 -25 -15 -65 -5 -25 6
-46 13 -46 14 0 2 33 37 73 78 147 153 240 258 310 350 178 235 224 292 276
335 116 99 185 178 249 287 49 82 83 121 156 174 60 44 86 76 175 208 63 95
122 153 154 153 10 0 32 -7 50 -16z m-1013 -48 c0 -8 -7 -16 -15 -20 -13 -4
-14 -2 -5 14 13 23 20 26 20 6z m-42 -52 c0 -17 -3 -22 -8 -13 -5 6 -6 18 -3
26 8 19 11 16 11 -13z m2935 -241 c-4 -21 -7 -67 -5 -103 1 -36 3 -231 3 -435
0 -360 8 -499 30 -520 12 -11 110 88 135 138 8 15 18 27 22 27 14 0 33 68 39
140 6 67 8 72 37 87 68 37 237 11 361 -55 53 -28 115 -74 115 -85 0 -2 18 -23
41 -47 l41 -42 -73 -67 c-40 -36 -94 -83 -120 -104 -26 -20 -52 -51 -58 -67
-5 -17 -18 -33 -28 -36 -51 -16 -106 -51 -120 -75 -9 -15 -27 -33 -40 -40 -13
-7 -23 -16 -23 -21 0 -4 -10 -8 -23 -8 -13 0 -38 -11 -57 -25 -19 -14 -41 -25
-50 -25 -9 0 -34 -13 -56 -28 -21 -16 -67 -39 -102 -53 -102 -39 -134 -120
-66 -164 l31 -20 6 -130 c4 -71 13 -157 20 -190 8 -33 18 -121 21 -195 4 -74
13 -200 21 -280 19 -181 23 -290 31 -765 3 -209 7 -425 9 -480 2 -55 3 -153 3
-217 1 -64 6 -162 12 -216 10 -83 9 -106 -3 -143 -11 -34 -14 -86 -11 -229 2
-102 3 -189 3 -195 -1 -69 -10 -468 -13 -555 -5 -155 -24 -423 -36 -529 -6
-47 -15 -126 -20 -176 -6 -49 -15 -107 -20 -127 -10 -35 -13 -77 -25 -323 -3
-55 -10 -123 -16 -152 -5 -28 -9 -60 -7 -70 3 -16 -10 -19 -147 -25 -82 -4
-170 -12 -195 -17 -40 -9 -189 -8 -480 3 l-85 3 -7 109 c-4 60 -10 149 -13
197 -5 83 -12 137 -36 277 -11 60 -14 310 -4 339 3 10 2 36 -3 58 -5 22 -5 69
0 108 5 42 4 96 -1 135 -6 36 -7 81 -2 101 9 40 -11 133 -34 159 -20 23 -19
55 6 125 19 54 20 75 16 212 -3 84 -10 160 -15 169 -6 11 -4 32 5 63 8 25 11
60 8 78 -3 17 -7 109 -9 205 -1 111 -7 185 -16 206 -10 28 -10 38 1 59 14 25
16 75 10 178 -2 28 -1 103 3 168 4 85 2 134 -8 178 -13 55 -13 63 5 104 16 37
19 59 14 137 -2 51 -5 102 -5 113 -1 11 0 83 2 160 1 77 1 165 0 195 -2 61 7
272 15 335 2 22 0 71 -5 109 -7 53 -6 75 5 96 20 42 35 137 29 189 -4 25 -8
130 -11 233 -3 103 -9 198 -15 212 -11 29 -4 56 15 56 20 0 65 51 65 74 0 34
-37 85 -67 92 -15 4 -57 20 -91 36 -35 15 -75 28 -88 28 -29 0 -153 61 -204
101 -19 15 -53 32 -75 39 -24 8 -53 28 -73 51 -19 22 -39 39 -46 39 -6 0 -19
12 -28 28 -9 15 -32 43 -52 63 -51 51 -55 84 -17 136 17 24 31 46 31 51 0 14
73 79 108 97 21 10 44 14 62 10 20 -4 31 -2 37 10 5 9 27 21 49 27 61 15 187
29 194 21 10 -12 47 -149 61 -223 7 -39 20 -75 33 -88 24 -27 68 -52 90 -52
16 0 17 2 37 118 7 39 16 72 22 72 5 0 7 -7 3 -15 -3 -8 -1 -15 4 -15 6 0 10
16 10 36 0 21 -4 33 -10 29 -5 -3 -10 3 -10 13 0 11 -2 35 -5 53 -4 26 -2 23
8 -11 l14 -45 7 83 c5 45 12 82 17 82 12 0 11 -67 -1 -90 -6 -12 -6 -27 -1
-42 11 -27 11 -27 16 32 6 73 -6 180 -20 180 -8 0 -15 -26 -20 -77 -6 -58 -10
-71 -15 -53 -4 14 -5 42 -2 63 2 21 0 48 -5 60 -23 48 -34 123 -23 151 13 34
13 49 0 41 -7 -4 -7 2 -1 18 5 14 8 69 6 123 -3 106 1 144 17 144 6 0 8 -7 4
-15 -3 -10 1 -15 13 -15 11 0 21 5 23 11 5 15 128 12 241 -6 15 -2 27 -1 27 3
0 11 101 7 108 -5 4 -6 17 -13 29 -14 16 -3 20 -8 14 -18 -6 -9 -16 -11 -27
-7 -28 11 -284 15 -284 5 0 -5 54 -9 120 -9 l120 0 0 -80 c0 -64 -3 -80 -15
-80 -11 0 -15 -11 -15 -40 0 -29 4 -40 15 -40 11 0 15 -11 15 -40 0 -36 -2
-40 -25 -40 -25 0 -25 -1 -25 -79 0 -61 -3 -80 -15 -85 -8 -3 -15 -12 -15 -21
0 -13 3 -13 20 -3 29 19 36 1 10 -27 -18 -19 -20 -25 -8 -25 9 0 18 7 22 15 3
8 12 15 21 15 8 0 15 4 15 9 0 5 10 7 22 3 17 -4 20 -2 15 11 -5 13 -1 17 16
18 12 1 26 1 30 0 5 -1 6 3 2 8 -10 17 23 68 49 75 15 4 26 15 29 29 4 19 4
18 6 -5 0 -16 -3 -28 -9 -28 -5 0 -10 -5 -10 -11 0 -5 15 1 33 15 19 15 37 26
41 26 10 0 75 49 109 82 16 16 23 28 16 28 -10 0 -10 3 -1 12 7 7 11 23 11 38
-2 23 -2 23 -6 3 -6 -34 -23 -28 -23 8 0 17 4 28 10 24 6 -3 10 1 10 9 0 9 -4
16 -10 16 -5 0 -10 11 -10 25 0 31 17 33 23 3 3 -18 5 -15 7 10 1 17 3 35 4
40 19 75 16 133 -5 101 -6 -10 -9 -3 -9 19 0 20 4 31 10 27 15 -9 12 7 -5 32
-15 21 -13 22 72 56 49 20 92 36 96 36 4 1 4 -16 0 -36z m-936 -95 c-3 -8 -6
-5 -6 6 -1 11 2 17 5 13 3 -3 4 -12 1 -19z m740 -10 c-3 -7 -5 -2 -5 12 0 14
2 19 5 13 2 -7 2 -19 0 -25z m-88 7 c-9 -8 -169 -14 -169 -5 0 3 39 7 87 9 49
1 85 0 82 -4z m-49 -45 c0 -5 -17 -10 -37 -9 -34 1 -35 2 -13 9 36 11 50 11
50 0z m167 -42 c-3 -7 -5 -2 -5 12 0 14 2 19 5 13 2 -7 2 -19 0 -25z m-30 -40
c-3 -8 -6 -5 -6 6 -1 11 2 17 5 13 3 -3 4 -12 1 -19z m-87 -274 c0 -2 -9 -4
-21 -4 -11 0 -18 4 -14 10 5 8 35 3 35 -6z m3542 -1148 c-11 -18 -23 -48 -27
-65 -4 -18 -24 -51 -45 -75 -20 -24 -47 -65 -60 -90 -21 -44 -47 -66 -33 -28
6 15 5 16 -13 2 -73 -55 -107 -111 -149 -240 -15 -47 -42 -110 -60 -140 -18
-30 -43 -82 -55 -115 -37 -99 -49 -125 -60 -125 -5 0 -10 -5 -10 -10 0 -20
-54 -59 -67 -48 -9 7 -14 -1 -19 -28 -4 -20 -17 -52 -30 -71 -12 -19 -25 -47
-29 -63 -3 -16 -33 -57 -65 -91 l-58 -63 -21 44 c-12 24 -21 59 -21 77 0 18
-6 47 -14 65 -18 41 -56 166 -56 185 0 8 -10 33 -23 56 -13 23 -31 72 -41 108
-9 36 -27 81 -39 100 -11 19 -29 63 -38 99 -10 36 -20 73 -24 82 -5 13 1 18
32 23 150 25 503 170 611 250 38 28 91 57 122 66 105 32 201 70 248 99 62 37
68 37 44 -4z m-7136 -97 c18 -21 18 -21 -16 -17 -24 2 -36 9 -38 21 -5 24 30
22 54 -4z m-917 -1976 c23 -19 19 -35 -7 -26 -20 8 -33 24 -26 35 7 11 11 10
33 -9z m9921 -374 c0 -5 -7 -9 -15 -9 -9 0 -12 6 -9 15 6 15 24 11 24 -6z m90
-9 c0 -5 -4 -10 -10 -10 -5 0 -10 5 -10 10 0 6 5 10 10 10 6 0 10 -4 10 -10z
m451 -42 c10 -18 9 -20 -6 -15 -9 4 -19 7 -21 7 -2 0 -4 7 -4 15 0 22 18 18
31 -7z m-511 -17 c0 -6 -4 -13 -10 -16 -5 -3 -10 1 -10 9 0 9 5 16 10 16 6 0
10 -4 10 -9z m-955 -311 c3 -5 -1 -10 -9 -10 -9 0 -16 5 -16 10 0 6 4 10 9 10
6 0 13 -4 16 -10z m-9600 -450 c-3 -5 -13 -10 -21 -10 -8 0 -12 5 -9 10 3 6
13 10 21 10 8 0 12 -4 9 -10z m1045 -20 c-19 -13 -30 -13 -30 0 0 6 10 10 23
10 18 0 19 -2 7 -10z m110 -70 c0 -11 -4 -20 -10 -20 -5 0 -10 5 -10 11 0 6
-7 3 -16 -6 -22 -21 -44 -4 -24 20 19 23 60 20 60 -5z"/>
<path d="M11398 13308 c12 -12 24 -19 28 -15 3 3 -1 13 -9 22 -9 8 -21 15 -29
15 -7 0 -4 -9 10 -22z"/>
<path d="M10070 13290 c0 -5 5 -10 11 -10 5 0 7 5 4 10 -3 6 -8 10 -11 10 -2
0 -4 -4 -4 -10z"/>
<path d="M8363 13283 c9 -2 23 -2 30 0 6 3 -1 5 -18 5 -16 0 -22 -2 -12 -5z"/>
<path d="M7890 13194 c-14 -8 -17 -13 -7 -10 10 3 25 6 33 6 8 0 14 5 14 10 0
14 -10 12 -40 -6z"/>
<path d="M8908 13203 c6 -2 18 -2 25 0 6 3 1 5 -13 5 -14 0 -19 -2 -12 -5z"/>
<path d="M8970 13180 c0 -5 7 -10 16 -10 8 0 12 5 9 10 -3 6 -10 10 -16 10 -5
0 -9 -4 -9 -10z"/>
<path d="M7715 13013 l-17 -28 23 22 c12 12 20 25 17 28 -3 3 -13 -7 -23 -22z"/>
<path d="M8851 12845 c-99 -31 -151 -129 -192 -363 -13 -75 -10 -116 26 -337
8 -49 17 -106 20 -125 3 -19 10 -69 15 -110 10 -86 32 -155 60 -185 10 -11 24
-33 30 -49 9 -26 9 -27 -5 -16 -13 11 -15 9 -15 -10 0 -13 3 -21 6 -17 3 3 14
-3 25 -14 16 -16 33 -19 122 -18 97 0 142 7 135 21 -2 3 9 16 25 28 56 44 131
188 139 265 3 39 -10 155 -27 230 -7 33 -18 152 -25 265 l-11 205 -37 76 c-30
64 -48 85 -96 123 -52 40 -66 46 -105 45 -25 0 -66 -6 -90 -14z"/>
<path d="M10610 12829 c-58 -18 -123 -93 -159 -184 -27 -67 -32 -91 -30 -150
3 -72 -5 -141 -21 -185 -5 -14 -14 -72 -20 -130 -6 -58 -14 -138 -19 -178 -10
-87 5 -177 38 -217 11 -15 21 -35 21 -44 0 -23 28 -61 54 -71 17 -7 17 -9 4
-9 -10 -1 -27 8 -38 19 l-20 20 -25 -24 -24 -24 75 -18 c46 -11 78 -14 82 -8
4 5 34 10 67 10 53 1 67 7 123 44 79 53 84 62 124 230 6 25 12 119 13 210 1
91 7 203 13 250 25 188 25 181 -2 253 -14 37 -26 76 -26 86 0 30 -47 79 -96
102 -58 26 -91 30 -134 18z m-97 -1186 c-7 -2 -19 -2 -25 0 -7 3 -2 5 12 5 14
0 19 -2 13 -5z"/>
<path d="M7736 11954 c-4 -9 -4 -19 -1 -22 2 -3 7 3 11 12 4 9 4 19 1 22 -2 3
-7 -3 -11 -12z"/>
<path d="M7710 11911 c0 -6 5 -13 10 -16 6 -3 10 1 10 9 0 9 -4 16 -10 16 -5
0 -10 -4 -10 -9z"/>
<path d="M7675 11808 c-21 -12 -35 -28 -35 -41 0 -11 48 25 54 41 6 14 6 14
-19 0z"/>
<path d="M7597 11725 c-14 -10 -17 -20 -11 -37 4 -13 8 -26 9 -30 1 -21 15
-17 15 5 0 14 4 37 10 51 11 29 4 32 -23 11z"/>
<path d="M10370 11711 c-14 -27 -13 -36 3 -22 8 6 17 8 20 4 4 -3 7 3 7 15 0
27 -16 28 -30 3z"/>
<path d="M7588 11624 c-5 -4 -3 -13 4 -21 7 -9 9 -36 5 -77 -5 -47 -3 -67 7
-75 11 -9 15 -5 19 16 3 16 1 30 -4 31 -5 2 -9 13 -9 25 1 22 1 22 16 2 13
-18 14 -15 8 40 -8 67 -14 84 -14 39 l-1 -29 -12 28 c-7 16 -15 25 -19 21z"/>
<path d="M9870 11476 c0 -9 13 -54 29 -100 61 -176 61 -219 -1 -277 -35 -33
-128 -79 -159 -79 -10 0 -20 -4 -23 -9 -3 -4 -19 -11 -35 -14 -38 -8 -76 -69
-61 -98 11 -20 30 -26 30 -10 0 6 -4 13 -10 16 -5 3 -10 10 -10 16 0 5 9 0 20
-11 12 -12 18 -25 15 -30 -4 -6 1 -10 10 -10 9 0 14 4 10 9 -5 9 34 7 89 -4
10 -2 28 6 40 17 11 11 48 33 81 49 60 27 121 77 148 121 8 13 18 59 21 104 6
73 5 86 -16 125 -12 24 -26 49 -30 54 -4 6 -29 39 -56 75 -48 64 -92 91 -92
56z"/>
<path d="M7641 11440 c0 -8 4 -22 9 -30 12 -18 12 -2 0 25 -6 13 -9 15 -9 5z"/>
<path d="M7624 11366 c3 -32 13 -64 20 -72 12 -11 15 -8 19 24 5 42 0 53 -13
32 -7 -11 -10 -5 -10 22 0 20 -5 40 -12 44 -8 5 -9 -8 -4 -50z"/>
<path d="M7660 11226 c0 -19 -3 -41 -6 -50 -3 -9 -1 -16 6 -16 6 0 8 5 5 10
-3 6 -2 10 4 10 5 0 12 -6 15 -12 4 -7 4 -2 1 12 -2 14 -5 37 -5 53 0 15 -4
27 -10 27 -5 0 -10 -15 -10 -34z"/>
<path d="M7673 11115 c0 -22 2 -30 4 -17 2 12 2 30 0 40 -3 9 -5 -1 -4 -23z"/>
<path d="M7696 11128 c-12 -46 -6 -65 10 -29 8 20 11 38 6 43 -6 6 -12 0 -16
-14z"/>
<path d="M7746 11020 c-18 -93 -18 -95 -6 -84 6 7 13 35 14 63 4 58 0 65 -8
21z"/>
<path d="M7765 10971 c5 -36 12 -48 20 -39 3 3 -2 20 -10 39 l-16 34 6 -34z"/>
<path d="M7800 10893 c0 -4 5 -15 10 -23 8 -13 10 -13 10 2 0 9 -4 20 -10 23
-5 3 -10 3 -10 -2z"/>
<path d="M7831 10814 c0 -11 3 -14 6 -6 3 7 2 16 -1 19 -3 4 -6 -2 -5 -13z"/>
<path d="M7840 10711 c0 -5 6 -14 14 -20 11 -9 15 -9 19 1 6 13 14 6 37 -32 4
-8 11 -12 14 -9 3 3 -4 19 -14 37 -14 22 -27 32 -45 32 -14 0 -25 -4 -25 -9z"/>
<path d="M8010 10501 c0 -5 5 -13 10 -16 6 -3 10 -2 10 4 0 5 -4 13 -10 16 -5
3 -10 2 -10 -4z"/>
<path d="M8977 10453 c-18 -18 0 -46 69 -109 42 -38 84 -73 93 -78 35 -21 179
-79 226 -91 87 -24 286 -45 329 -35 21 4 52 6 70 3 17 -2 87 2 156 10 136 16
249 53 275 90 22 31 19 64 -7 78 -29 15 -176 5 -254 -18 -86 -25 -412 -21
-462 6 -11 6 -36 11 -54 11 -34 0 -84 14 -178 49 -30 12 -64 21 -75 21 -11 0
-51 16 -90 35 -72 36 -87 40 -98 28z"/>
<path d="M8258 10213 c-10 -3 -18 -12 -18 -22 0 -13 8 -18 30 -19 17 0 30 3
30 7 0 17 -26 37 -42 34z"/>
<path d="M8322 10143 c2 -10 10 -18 18 -18 8 0 21 -4 27 -8 9 -5 11 -3 7 6 -3
8 -16 19 -30 26 -22 10 -25 9 -22 -6z"/>
<path d="M9505 10099 c-16 -8 -15 -8 8 -4 15 3 27 2 27 -2 0 -5 12 -14 27 -20
21 -10 28 -10 35 0 6 9 10 9 17 -2 6 -9 21 -12 52 -8 24 3 35 4 24 1 -11 -3
-24 -11 -30 -16 -7 -7 -5 -9 5 -6 8 3 21 -2 29 -9 8 -9 23 -12 38 -8 15 3 22
2 19 -4 -4 -5 10 -7 35 -4 29 4 44 2 50 -8 6 -11 9 -8 9 9 0 19 -5 22 -47 23
l-48 2 40 6 c33 6 36 8 19 14 -12 4 -29 4 -39 1 -12 -5 -16 -4 -12 3 5 7 -1 9
-15 6 -17 -3 -19 -2 -10 5 19 13 -16 21 -70 16 -34 -3 -37 -2 -18 5 18 6 5 9
-50 9 -41 0 -84 -4 -95 -9z"/>
<path d="M12380 11967 c-6 -10 -9 -21 -7 -23 7 -8 32 6 43 24 9 14 8 18 -6 18
-10 0 -23 -9 -30 -19z"/>
<path d="M12335 11910 c-3 -5 3 -10 15 -10 12 0 18 5 15 10 -3 6 -10 10 -15
10 -5 0 -12 -4 -15 -10z"/>
<path d="M12258 11903 c7 -3 16 -2 19 1 4 3 -2 6 -13 5 -11 0 -14 -3 -6 -6z"/>
<path d="M12071 11874 c0 -11 3 -14 6 -6 3 7 2 16 -1 19 -3 4 -6 -2 -5 -13z"/>
<path d="M12278 11813 c7 -3 16 -2 19 1 4 3 -2 6 -13 5 -11 0 -14 -3 -6 -6z"/>
<path d="M7217 11951 c-2 -11 0 -24 6 -30 6 -6 8 -14 4 -18 -4 -3 -13 2 -21
12 -9 13 -15 15 -20 6 -4 -6 0 -14 9 -17 11 -5 13 -10 5 -19 -18 -22 1 -24 23
-2 25 25 34 87 13 87 -8 0 -16 -9 -19 -19z"/>
<path d="M7015 11871 c-3 -6 1 -11 9 -11 9 0 16 -4 16 -10 0 -5 -13 -10 -30
-10 -16 0 -30 -4 -30 -9 0 -5 -7 -12 -16 -15 -8 -3 -12 -2 -9 4 3 5 -7 12 -22
15 -15 4 -36 10 -45 16 -24 13 -34 11 -20 -3 7 -7 12 -20 12 -30 0 -15 4 -17
17 -10 11 7 26 4 47 -9 17 -10 45 -19 63 -19 21 0 33 -6 37 -17 3 -10 3 1 0
23 -5 37 -3 42 19 48 27 6 32 36 6 36 -9 0 -24 3 -32 6 -8 3 -18 1 -22 -5z"/>
<path d="M6930 11860 l-35 -7 38 -2 c20 0 37 4 37 9 0 6 -1 9 -2 9 -2 -1 -19
-5 -38 -9z"/>
<path d="M9440 9300 c0 -5 -12 -13 -27 -17 -27 -7 -27 -7 12 -14 22 -5 51 -8
65 -8 22 0 21 2 -9 13 -40 14 -26 32 17 22 20 -5 23 -4 12 4 -19 13 -70 13
-70 0z"/>
<path d="M9600 9288 c0 -5 36 -8 80 -8 44 0 80 3 80 8 0 4 -36 7 -80 7 -44 0
-80 -3 -80 -7z"/>
<path d="M9500 9201 c0 -12 29 -23 42 -15 6 4 5 10 -3 15 -18 11 -39 11 -39 0z"/>
<path d="M9394 9177 c-10 -12 -11 -44 0 -54 8 -8 27 8 21 18 -4 5 1 12 9 15
13 5 13 8 1 20 -16 17 -17 17 -31 1z"/>
<path d="M9376 9058 c-3 -17 -4 -33 -1 -36 3 -3 5 0 5 6 0 7 5 12 11 12 5 0 7
-6 3 -12 -4 -8 -3 -10 2 -5 12 12 12 30 -1 39 -6 5 -5 8 3 8 7 0 10 5 7 10
-11 18 -22 10 -29 -22z"/>
<path d="M9376 8994 c-8 -22 -4 -25 11 -9 7 8 9 16 4 19 -5 3 -12 -1 -15 -10z"/>
<path d="M9401 8944 c0 -11 3 -14 6 -6 3 7 2 16 -1 19 -3 4 -6 -2 -5 -13z"/>
<path d="M9870 8811 c-15 -29 -12 -33 10 -14 21 19 26 33 10 33 -5 0 -14 -9
-20 -19z"/>
<path d="M9600 8680 c0 -5 4 -10 9 -10 6 0 13 5 16 10 3 6 -1 10 -9 10 -9 0
-16 -4 -16 -10z"/>
<path d="M9611 8654 c-20 -23 -9 -25 19 -4 16 13 20 20 10 19 -8 0 -21 -7 -29
-15z"/>
<path d="M9414 8579 c-3 -6 -1 -16 5 -22 8 -8 11 -5 11 11 0 24 -5 28 -16 11z"/>
<path d="M9440 8569 c0 -5 5 -7 10 -4 6 3 10 8 10 11 0 2 -4 4 -10 4 -5 0 -10
-5 -10 -11z"/>
<path d="M14240 12272 c-22 -11 -48 -39 -75 -82 l-40 -64 0 -146 c0 -80 4
-160 9 -177 8 -31 7 -33 -17 -33 -14 0 -27 -6 -30 -14 -4 -10 -23 -14 -64 -15
-76 0 -90 -3 -144 -29 -25 -12 -49 -22 -53 -22 -19 0 -91 -88 -126 -153 -52
-99 -63 -150 -58 -254 4 -66 11 -102 31 -146 14 -31 29 -85 32 -120 7 -65 31
-165 45 -182 4 -5 27 -46 50 -90 24 -44 60 -105 80 -135 20 -30 42 -71 49 -91
20 -61 70 -131 142 -200 80 -75 86 -96 32 -101 l-38 -3 24 -20 c14 -11 35 -31
49 -45 20 -21 21 -26 8 -28 -9 -2 -16 -6 -16 -8 0 -9 65 -95 95 -127 50 -52
81 -97 126 -182 60 -114 136 -222 193 -275 28 -25 73 -68 100 -96 28 -28 66
-61 85 -74 19 -13 29 -26 23 -28 -24 -8 -11 -27 64 -98 162 -154 336 -191 520
-109 76 33 163 120 202 199 45 92 56 169 41 291 -6 55 -14 156 -16 225 -4 84
-9 128 -18 135 -13 10 -26 59 -45 173 -13 73 -50 178 -59 163 -3 -5 -7 23 -9
62 -4 97 -26 183 -77 291 -74 159 -123 270 -131 296 -4 14 -19 52 -34 85 -14
33 -37 87 -50 120 -36 95 -99 186 -150 221 l-45 31 -7 104 c-5 57 -15 126 -23
154 -18 62 -114 227 -136 232 -9 3 -22 16 -28 29 -19 42 -103 125 -151 149
-25 13 -64 46 -88 74 -24 28 -52 51 -62 51 -11 0 -31 5 -45 12 l-26 12 23 13
23 12 -25 1 c-14 0 -43 7 -65 15 -51 18 -54 18 -95 -3z"/>
</g>
</svg>
