<svg class="cafe24" role="img" aria-labelledby="cafe24" xmlns="http://www.w3.org/2000/svg" width="101" height="18" viewBox="0 0 101 18">

            <g>
                <path class="logo1" d="M4.726 34.17a5.3 5.3.0 0 1 2.7 4.49 4.888 4.888.0 0 1-1.3 3.387 7.389 7.389.0 0 1-3.743 1.71 20.822 20.822.0 0 0-2.935.72c-.98.395-1.986 1.009-1.986 2.227H7.63v3.332H-6.315v-2.852a5.447 5.447.0 0 1 2.585-4.6 11.538 11.538.0 0 1 4.347-1.66c1.394-.274 3.2-.418 3.2-2.245.0-1.781-2.236-2.344-3.745-2.258a5.52 5.52.0 0 0-3.907 1.787l-2.5-2.264a8.814 8.814.0 0 1 6.4-2.838 8.837 8.837.0 0 1 4.661 1.064z" transform="translate(76.851 -32.671)"></path>
                <g transform="translate(84.756 .471)">
                    <path class="logo1" d="M6.31 42.732a2.888 2.888.0 0 0-.569 2.877 2.4 2.4.0 0 0 2.528 1.473h6.965v2.948h3.609v-2.948h2.952v-2.991h-2.952v-8.569a2.424 2.424.0 0 0-2.349-2.369 3.566 3.566.0 0 0-3.082 1.211zm8.924-5.871v7.23H9.082z" transform="translate(-5.577 -33.136)"></path>
                </g>
                <g transform="translate(36.613 .656)">
                    <path class="logo2" d="M-21.826 40.509h-9.259v-1.927c0-1.284.5-1.961 1.842-1.961h8.072v-3.33h-8.69c-3.166.0-4.833 1.865-4.833 4.649V50h3.609v-6.489h9.259z" transform="translate(34.694 -33.291)"></path>
                </g>
                <g transform="translate(51.626 .378)">
                    <path class="logo2" d="M-5.007 40.568A8.714 8.714.0 0 0-7.4 35.621a8.684 8.684.0 0 0-6.146-2.563 8.608 8.608.0 0 0-8.589 8.618 8.576 8.576.0 0 0 4.1 7.307 8.525 8.525.0 0 0 4.508 1.27 8.624 8.624.0 0 0 6.145-2.581l-2.558-2.244a5.286 5.286.0 0 1-3.6 1.451 5.314 5.314.0 0 1-3.711-1.54 5.4 5.4.0 0 1-1.158-1.786h13.25a8.541 8.541.0 0 0 .152-2.985zm-13.637.0a5.281 5.281.0 0 1 1.393-2.57 5.255 5.255.0 0 1 6.258-.9 5.286 5.286.0 0 1 2.556 3.472z" transform="translate(22.136 -33.058)"></path>
                </g>
                <path class="logo2" d="M-56.307 47.223a5.489 5.489.0 0 1-5.493-5.482 5.49 5.49.0 0 1 5.488-5.481 5.5 5.5.0 0 1 3.738 1.473l2.654-2.33a8.982 8.982.0 0 0-6.392-2.661 9.006 9.006.0 0 0-9.014 9 9.006 9.006.0 0 0 9.014 9 8.989 8.989.0 0 0 6.359-2.625l-2.428-2.558a5.476 5.476.0 0 1-3.926 1.664z" transform="translate(65.321 -32.742)"></path>
                <path class="logo2" d="M-38.459 33.344V35.1a6.668 6.668.0 0 0-4.956-2.026 8.6 8.6.0 0 0-8.6 8.6 8.532 8.532.0 0 0 8.488 8.544 6.488 6.488.0 0 0 5.071-2.006v1.831h3.625v-16.7zm-4.968 13.525a5.218 5.218.0 0 1-5.218-5.221 5.219 5.219.0 0 1 5.218-5.221 5.221 5.221.0 0 1 5.219 5.221 5.22 5.22.0 0 1-5.219 5.221z" transform="translate(67.921 -32.677)"></path>
            </g>
        </svg>